# xmcd CD database file
#
# Track frame offsets:
#	150
#	28503
#	60905
#	89107
#	122859
#	153312
#	179290
#	205392
#
# Disc length: 3014 seconds
#
# Revision: 0
# Processed by: cddbd v1.5.2PL0 Copyright (c) Steve Scherf et al.
# Submitted via: CDex 1.51
#
DISCID=680bc408
DTITLE=Medwyn Goodall - Earth Healer 2
DYEAR=2012
DGENRE=New Age
TTITLE0=Free Spirit
TTITLE1=No More Boundaries
TTITLE2=Sun On My Shoulders
TTITLE3=Feet In The Grass
TTITLE4=To The Other Side
TTITLE5=Only Love Matters
TTITLE6=Down Spirit Road
TTITLE7=Watching Stars
EXTD=YEAR: 2012
EXTT0=
EXTT1=
EXTT2=
EXTT3=
EXTT4=
EXTT5=
EXTT6=
EXTT7=
PLAYORDER=
